name Walk2.mot
datacolumns 19
datarows 10
range 1.24500000 1.29000000
endheader

                time	   L_ground_force_vx	   L_ground_force_vy	   L_ground_force_vz	   L_ground_force_px	   L_ground_force_py	   L_ground_force_pz	   R_ground_force_vx	   R_ground_force_vy	   R_ground_force_vz	   R_ground_force_px	   R_ground_force_py	   R_ground_force_pz	   L_ground_torque_x	   L_ground_torque_y	   L_ground_torque_z	   R_ground_torque_x	   R_ground_torque_y	   R_ground_torque_z	
          1.24500000	          0.21295417	         -6.01598438	          0.30266568	         -0.00007073	          0.00000000	          0.00001492	          0.00000000	         -0.00000000	          0.00000000	         -0.00000000	          0.00000000	         -0.00000000	          0.00000000	         -0.00370243	          0.00000000	          0.00000000	         -0.00000000	          0.00000000	
          1.25000000	         -3.86318159	         22.85806882	         -0.91532257	         -0.28695047	          0.00000000	         -0.02645935	          0.00000000	         -0.00000000	          0.00000000	         -0.00000000	          0.00000000	         -0.00000000	          0.00000000	          0.01396213	          0.00000000	          0.00000000	          0.00000000	          0.00000000	
          1.25500000	        -10.58139450	        109.42915851	         -4.80484663	         -0.47560317	          0.00000000	         -0.04243351	         -0.00000000	         -0.00000000	         -0.00000000	          0.00000000	          0.00000000	          0.00000000	          0.00000000	          0.08658103	          0.00000000	          0.00000000	          0.00000000	          0.00000000	
          1.26000000	        -14.54288152	        213.23021109	        -11.42451051	         -0.50751497	          0.00000000	         -0.04466375	         -0.00000000	          0.00000000	         -0.00000000	          0.00000000	          0.00000000	          0.00000000	          0.00000000	          0.12818760	          0.00000000	          0.00000000	          0.00000000	          0.00000000	
          1.26500000	        -15.80895484	        248.87997566	        -18.30838528	         -0.49474832	          0.00000000	         -0.04370941	         -0.00000000	          0.00000000	          0.00000000	          0.00000000	          0.00000000	          0.00000000	          0.00000000	          0.12728076	          0.00000000	          0.00000000	         -0.00000000	          0.00000000	
          1.27000000	        -18.95178944	        234.48602016	        -22.50045938	         -0.48581634	          0.00000000	         -0.04368959	          0.00000000	          0.00000000	          0.00000000	         -0.00000000	          0.00000000	         -0.00000000	          0.00000000	          0.22037326	          0.00000000	          0.00000000	         -0.00000000	          0.00000000	
          1.27500000	        -25.08273807	        237.87948683	        -23.55314747	         -0.48108376	          0.00000000	         -0.04471022	          0.00000000	         -0.00000000	          0.00000000	         -0.00000000	          0.00000000	         -0.00000000	          0.00000000	          0.43838520	          0.00000000	          0.00000000	         -0.00000000	          0.00000000	
          1.28000000	        -33.94263587	        268.50919145	        -20.26313380	         -0.47678813	          0.00000000	         -0.04689674	          0.00000000	         -0.00000000	         -0.00000000	         -0.00000000	          0.00000000	         -0.00000000	          0.00000000	          0.67367455	          0.00000000	          0.00000000	          0.00000000	          0.00000000	
          1.28500000	        -43.75489301	        298.84944875	        -12.23927112	         -0.47330614	          0.00000000	         -0.04908381	         -0.00000000	         -0.00000000	         -0.00000000	          0.00000000	          0.00000000	          0.00000000	          0.00000000	          0.74640450	          0.00000000	          0.00000000	          0.00000000	          0.00000000	
          1.29000000	        -51.75009683	        315.71895207	         -4.43560761	         -0.47071123	          0.00000000	         -0.05047619	         -0.00000000	          0.00000000	         -0.00000000	          0.00000000	          0.00000000	          0.00000000	          0.00000000	          0.67702919	          0.00000000	          0.00000000	         -0.00000000	          0.00000000	
